# xmcd CD database file
#
# Track frame offsets:
#	150
#	20132
#	34750
#	52211
#	70628
#	88387
#	104081
#	124639
#	143293
#	166357
#	184698
#	201532
#	220125
#	240431
#	258819
#	274336
#	294716
#
# Disc length: 4256 seconds
#
# Revision: 0
# Processed by: cddbd v1.5.2PL0 Copyright (c) Steve Scherf et al.
# Submitted via: CDex 1.51
#
DISCID=07109e11
DTITLE=Various Artist - Obsecion
DYEAR=1900
DGENRE=Salsa
TTITLE0=Aventura - Obsecion
TTITLE1=Various Artist - mentirosa
TTITLE2=New Artist (38) - Track 03
TTITLE3=Charlie Cruz - Amarte Es Un Problema (bachat
TTITLE4=ChristianCastro - Azul(bachata)
TTITLE5=Croma Latina ft Toke de keda - Un Apretoncito
TTITLE6=artist - Bachata - Lamento de mi Corazó
TTITLE7=Monchy y Alexandra - Dos Locos
TTITLE8=MONCHY Y ALEXANDRA - HOJA EN BLANCO
TTITLE9=Monchy y Alexandra - Polo Opuesto
TTITLE10=Yoskar Sarante - La Noche
TTITLE11=YOSKAR SARANTE - PERDIDO
TTITLE12=Yoskar Sarante - Si Te Llego A Perder
TTITLE13=Yoskar Sarante - tu eres ajena
TTITLE14=Zacarias Ferreira - Puro Sentimiento
TTITLE15=Zacarias Fereira - Triste
TTITLE16=Zacarias Ferreira - Amiga Veneno
EXTD=
EXTT0=
EXTT1=
EXTT2=
EXTT3=
EXTT4=
EXTT5=
EXTT6=
EXTT7=
EXTT8=
EXTT9=
EXTT10=
EXTT11=
EXTT12=
EXTT13=
EXTT14=
EXTT15=
EXTT16=
PLAYORDER=
